<svg width="68" height="79" viewBox="0 0 68 79" fill="none" xmlns="http://www.w3.org/2000/svg">
<g clip-path="url(#clip0_184_40899)">
<path d="M64.6003 34.2376C62.9048 36.7849 61.2699 39.2598 59.6069 41.7171C59.5291 41.808 59.431 41.8788 59.3208 41.9234C59.2106 41.9681 59.0914 41.9854 58.9733 41.9738C54.0318 40.3655 49.1011 38.731 44.1034 37.0789C45.1566 36.7761 46.5558 35.0429 46.6401 34.0073C46.6844 33.7194 46.6271 33.4249 46.4783 33.1757C46.3296 32.9264 46.0989 32.7384 45.827 32.6448C45.5661 32.5206 45.2693 32.4983 44.9933 32.5821C44.7172 32.6659 44.4813 32.8499 44.3305 33.099C43.898 33.7199 43.4136 34.3495 43.1605 35.0538C42.9875 35.5387 43.1605 36.1508 43.1908 36.7652L36.0846 34.4307C36.2619 34.1477 36.4047 33.902 36.5625 33.665C37.788 31.8308 39.0134 29.9988 40.2389 28.169C40.6044 27.6249 40.7817 26.9996 40.2886 26.5213C39.9283 26.1859 39.4516 26.0091 38.963 26.0298C38.5953 26.0715 38.2039 26.5125 37.9552 26.8701C36.6404 28.7723 35.3601 30.7053 34.0063 32.7391C33.7901 32.4561 33.6344 32.2345 33.4787 32.0019C31.9908 29.7889 30.5037 27.5737 29.0173 25.3563C28.055 23.9258 27.1121 23.601 25.4815 24.1276C17.9601 26.601 10.4401 29.0773 2.9215 31.5566C0.717834 32.285 0.131775 34.0841 1.43365 36.0499C2.99719 38.4107 4.55642 40.7758 6.1459 43.119C6.43785 43.5578 6.42704 43.8431 6.1459 44.2665C4.30123 46.9959 2.48251 49.7515 0.663788 52.4897C-0.633759 54.4402 -0.015274 56.2305 2.19488 56.9764C3.52054 57.4152 4.84619 57.8826 6.18698 58.2775C6.66924 58.4201 6.81197 58.6373 6.80764 59.131C6.78601 62.0337 6.79467 64.9363 6.80764 67.8368C6.80764 69.84 7.77432 71.2485 9.65792 71.8278C17.3524 74.1907 25.049 76.5471 32.7629 78.8333C33.6186 79.0642 34.5203 79.0543 35.3709 78.8047C42.9594 76.5515 50.5306 74.2302 58.1018 71.9177C60.2276 71.2595 61.1942 69.9277 61.1964 67.6898C61.1964 64.8705 61.2115 62.0512 61.1834 59.2319C61.1834 58.679 61.311 58.4135 61.8625 58.249C63.2573 57.8365 64.6284 57.3494 66.0038 56.8799C67.9501 56.2107 68.5794 54.3875 67.4289 52.6433C65.6145 49.892 63.8023 47.1407 61.9468 44.4201C61.5597 43.854 61.5835 43.4898 61.9684 42.9325C63.5428 40.6464 65.0566 38.3251 66.5899 36.0016C67.8528 34.0972 67.2256 32.2718 65.089 31.5609C60.996 30.2167 56.9044 28.8667 52.8143 27.5108C52.6348 27.4537 52.4574 27.3835 52.2758 27.3331C51.374 27.072 50.6841 27.3835 50.4333 28.1558C50.1954 28.8908 50.6084 29.5819 51.5146 29.8781C55.7085 31.2648 59.9032 32.6463 64.0986 34.0226C64.237 34.0731 64.384 34.1477 64.6003 34.2376ZM58.6056 59.357C58.6056 62.2092 58.6056 64.9342 58.6056 67.6679C58.6056 68.7122 58.3353 69.0611 57.334 69.3661L39.0343 74.9345L34.0993 76.4352V54.8219C34.3026 55.094 34.4648 55.2936 34.6075 55.5043C36.2713 57.9908 37.9336 60.4774 39.5945 62.9639C40.6974 64.6138 41.6056 64.9385 43.4417 64.333C47.6068 62.9566 51.7726 61.5788 55.9392 60.1995C56.7999 59.9252 57.6627 59.6531 58.6056 59.357ZM36.0846 52.9943C36.2381 52.9219 36.3008 52.8824 36.3852 52.8561C43.8821 50.3856 51.3733 47.91 58.8587 45.4293C59.3669 45.2604 59.5291 45.5237 59.7475 45.855C61.4934 48.4878 63.2408 51.1206 64.9896 53.7534C65.1042 53.929 65.1907 54.1242 65.3096 54.348C63.4649 54.9558 61.6765 55.5416 59.888 56.1339C54.1904 58.0164 48.4913 59.8989 42.7907 61.7813C42.4598 61.891 42.1419 62.1061 41.8197 61.6234C39.9404 58.7317 38.0266 55.8882 36.0846 52.9789V52.9943ZM2.70741 54.3458C2.72943 54.2456 2.76132 54.1478 2.80257 54.054C4.65374 51.2632 6.51137 48.479 8.34956 45.6795C8.61772 45.2714 8.88371 45.3701 9.24054 45.4886C13.8425 47.0098 18.4452 48.5236 23.0486 50.0302C25.9875 50.9956 28.9243 51.9697 31.9152 52.957C31.7378 53.2313 31.5951 53.4594 31.4437 53.6832C29.7526 56.2217 28.042 58.7448 26.3833 61.3031C26.02 61.8647 25.7107 61.9613 25.0857 61.7616C19.463 59.8813 13.8403 58.0318 8.21764 56.18C6.37729 55.5613 4.54992 54.9448 2.70741 54.3305V54.3458ZM3.39729 34.264C3.54002 34.1982 3.61353 34.1543 3.6849 34.1301C11.1732 31.6407 18.6614 29.1578 26.1497 26.6814C26.6579 26.5125 26.8201 26.778 27.0385 27.1071C28.3966 29.1446 29.7583 31.1806 31.1236 33.2152C31.3767 33.597 31.6254 33.9809 31.9108 34.4154L29.4044 35.2491C22.7091 37.4621 16.0137 39.6744 9.31841 41.886C8.98537 41.9957 8.66962 42.2129 8.35172 41.728C6.73412 39.24 5.07977 36.7805 3.39729 34.2486V34.264ZM33.9609 50.8332L12.5969 43.7794L12.6358 43.5842L33.9609 36.5392V50.8332Z" fill="#979797"/>
<path d="M28.4705 5.58161C27.8411 5.58161 27.3005 5.55747 26.7642 5.58161C26.437 5.58508 26.1245 5.71967 25.8948 5.95601C25.6651 6.19234 25.5369 6.51125 25.538 6.84317C25.5284 7.01436 25.5529 7.18577 25.6101 7.34713C25.6673 7.50849 25.756 7.65648 25.8709 7.78225C25.9857 7.90803 26.1244 8.00899 26.2787 8.0791C26.4329 8.14921 26.5995 8.18703 26.7685 8.1903C27.3048 8.22321 27.8498 8.1903 28.5224 8.1903C28.1869 8.60407 27.8791 9.04019 27.6011 9.49574C27.2659 10.1408 26.8961 10.8121 26.7512 11.5077C26.535 12.5783 27.1145 13.3331 28.1807 13.6205C29.4328 13.9584 30.5876 13.6095 31.684 13.0479C32.506 12.6349 33.2354 12.0549 33.8269 11.3438C34.4184 10.6327 34.8595 9.80572 35.1225 8.91432C35.2436 8.52817 35.3064 8.20346 35.8557 8.12228C36.4612 8.03013 36.7812 7.50796 36.7661 6.84536C36.7531 6.22007 36.4266 5.72641 35.86 5.64962C35.2934 5.57283 35.2523 5.23715 35.1312 4.85539C34.2164 1.98561 31.6711 -0.0328835 28.9938 0.00222083C27.0475 0.026355 26.1824 1.33399 27.0021 3.13308C27.3848 3.96023 27.9385 4.70181 28.4705 5.58161Z" fill="#979797"/>
<path d="M21.9953 5.60353C21.2265 5.77749 20.5021 6.11298 19.8689 6.58837C19.2356 7.06376 18.7077 7.6685 18.3189 8.3636C17.9773 8.95818 18.226 9.54837 18.7515 9.9411C19.277 10.3338 19.8738 10.3404 20.2955 9.86431C21.0117 9.01716 21.934 8.37497 22.9706 8.00159C23.5935 7.78219 23.76 7.12398 23.5589 6.47894C23.3577 5.8339 22.8777 5.53112 21.9953 5.60353Z" fill="#979797"/>
<path d="M16.6757 13.4339C16.9698 14.4695 17.2099 15.527 17.5753 16.5363C17.6279 16.707 17.715 16.8647 17.8311 16.9993C17.9472 17.1339 18.0896 17.2425 18.2494 17.318C18.4092 17.3936 18.5827 17.4345 18.759 17.4382C18.9352 17.4419 19.1103 17.4082 19.273 17.3393C19.9715 17.0672 20.205 16.3476 19.9715 15.4963C19.7307 14.6664 19.5557 13.8183 19.4481 12.96C19.34 11.9991 18.9161 11.4681 18.0922 11.4922C17.318 11.5186 16.8595 12.0605 16.8401 12.9776C16.8401 13.1136 16.8401 13.2497 16.8401 13.3857L16.6757 13.4339Z" fill="#979797"/>
<path d="M20.3674 19.5224C20.4928 19.6935 20.6744 20.1806 21.0161 20.3715C22.0273 20.9262 23.075 21.4093 24.1519 21.8173C24.3152 21.8849 24.4906 21.9172 24.6669 21.9121C24.8432 21.9071 25.0166 21.8648 25.1759 21.788C25.3352 21.7113 25.477 21.6016 25.5923 21.4661C25.7075 21.3307 25.7936 21.1723 25.8452 21.0012C26.0614 20.3057 25.7111 19.6496 24.952 19.314C24.0459 18.9103 23.1463 18.4934 22.2445 18.0787C21.3427 17.6641 20.3738 18.2433 20.3674 19.5224Z" fill="#979797"/>
<path d="M29.9842 20.0445C29.5019 20.0445 29.0175 20.027 28.5353 20.0445C28.2133 20.061 27.9092 20.1995 27.6831 20.4326C27.4569 20.6656 27.3252 20.9763 27.3141 21.3032C27.3029 21.63 27.4131 21.9492 27.6228 22.1976C27.8326 22.446 28.1266 22.6055 28.4466 22.6445C29.4349 22.7278 30.4275 22.7849 31.4202 22.7871C32.2852 22.7871 32.8475 22.2188 32.8539 21.4575C32.8604 20.6962 32.3479 20.1893 31.5132 20.1257C31.005 20.0862 30.4946 20.1257 29.9842 20.1257V20.0445Z" fill="#979797"/>
<path d="M36.9366 20.0336C36.7485 20.0204 36.5582 19.9919 36.3722 19.9941C35.611 19.9941 35.0487 20.5053 34.9946 21.214C34.9785 21.5459 35.084 21.8721 35.2908 22.1297C35.4977 22.3874 35.7912 22.5583 36.1148 22.6093C36.9132 22.7306 37.7174 22.8082 38.524 22.8419C39.2441 22.8748 39.7004 22.4843 39.8215 21.7603C39.8554 21.5913 39.8551 21.4171 39.8206 21.2483C39.7861 21.0795 39.7181 20.9195 39.6208 20.7782C39.5236 20.6368 39.399 20.517 39.2547 20.4259C39.1104 20.3349 38.9493 20.2746 38.7813 20.2486C38.1758 20.1279 37.5551 20.0796 36.9431 20.0007L36.9366 20.0336Z" fill="#979797"/>
<path d="M47.7258 28.8799C47.636 28.311 47.5176 27.7471 47.3711 27.1905C47.2769 26.8724 47.0653 26.6036 46.7804 26.44C46.4955 26.2765 46.1594 26.231 45.8422 26.3129C45.5246 26.3895 45.2473 26.5847 45.0653 26.8596C44.8833 27.1345 44.8102 27.4689 44.8604 27.796C44.9274 28.3599 45.0334 28.9216 45.1264 29.4832C45.2734 30.3894 45.7989 30.8545 46.5709 30.7667C47.343 30.679 47.7582 30.0954 47.7258 28.8799Z" fill="#979797"/>
<path d="M42.3776 21.8392C42.196 22.0082 41.6445 22.2781 41.5493 22.6752C41.4793 23.1888 41.6096 23.71 41.9126 24.1276C42.2731 24.6066 42.7542 24.978 43.3053 25.2027C43.7378 25.3738 44.4126 25.387 44.7672 25.1456C45.1219 24.9043 45.2798 24.268 45.2473 23.8161C45.1976 23.1074 43.4027 21.8239 42.3776 21.8392Z" fill="#979797"/>
</g>
<defs>
<clipPath id="clip0_184_40899">
<rect width="68" height="79" fill="white" transform="matrix(-1 0 0 1 68 0)"/>
</clipPath>
</defs>
</svg>
