<svg width="22" height="22" viewBox="0 0 22 22" fill="none" xmlns="http://www.w3.org/2000/svg">
<path d="M3.91299 2.21316C3.97207 2.21316 4.03775 2.20435 4.10339 2.20435C7.67751 2.20435 11.2498 2.20435 14.8203 2.20435C15.5238 2.20435 15.991 2.53443 16.1409 3.13849C16.1668 3.25956 16.1785 3.38327 16.1759 3.50709C16.1759 5.66805 16.1759 7.829 16.1759 9.98996C16.1718 10.0953 16.1302 10.1956 16.0588 10.2727C15.309 11.0378 14.554 11.797 13.794 12.5503C13.7103 12.6247 13.6036 12.6675 13.492 12.6714C12.2469 12.6791 11.0018 12.6714 9.75562 12.6714C9.68071 12.6681 9.60563 12.6714 9.53129 12.6813C9.49331 12.6836 9.45622 12.6938 9.42236 12.7113C9.3885 12.7288 9.35864 12.7531 9.33459 12.7828C9.31054 12.8125 9.29281 12.8468 9.28261 12.8837C9.2724 12.9206 9.26993 12.9592 9.27529 12.9971C9.27557 13.0707 9.30464 13.1413 9.35623 13.1936C9.40781 13.2459 9.47777 13.2757 9.55101 13.2765C9.61118 13.282 9.67357 13.2765 9.73484 13.2765H13.0106L13.0588 13.348C12.8982 13.471 12.7475 13.6063 12.608 13.7529C12.4653 13.9163 12.3503 14.1022 12.2677 14.3031C12.0489 14.8796 11.8552 15.4661 11.6626 16.0525C11.6057 16.2253 11.5817 16.409 11.5368 16.6137H9.6976C9.4186 16.6137 9.27526 16.7237 9.27198 16.9207C9.26869 17.1176 9.41312 17.2343 9.68884 17.2354C10.3453 17.2354 11.0018 17.2299 11.6583 17.2354C11.8672 17.2354 12.0751 17.2892 12.2841 17.2958C12.4316 17.3054 12.5796 17.2894 12.7218 17.2485C13.352 17.0439 13.98 16.8337 14.6003 16.6016C14.7895 16.5255 14.9622 16.4135 15.1091 16.2715C15.4592 15.9414 15.7875 15.5915 16.1584 15.2152C16.1672 15.3142 16.1759 15.3692 16.1759 15.4243C16.1759 16.6082 16.1759 17.7921 16.1759 18.976C16.1759 19.5085 15.8958 19.7968 15.3684 19.7979C12.0226 19.7979 8.6761 19.7979 5.32883 19.7979C4.79052 19.7979 4.50931 19.5063 4.50931 18.9661C4.50931 13.9488 4.50931 8.93149 4.50931 3.91419C4.50931 3.29803 4.35285 2.74789 3.93489 2.28577C3.92173 2.27023 3.91035 2.25326 3.90097 2.23516C3.90097 2.23516 3.90643 2.23516 3.91299 2.21316ZM8.45251 5.08158C8.45251 4.7592 8.45251 4.43573 8.45251 4.11335C8.45251 3.85258 8.33761 3.74034 8.07502 3.73924C7.50826 3.73924 6.94117 3.73924 6.37369 3.73924C6.11219 3.73924 5.99074 3.85478 5.98855 4.11115C5.98418 4.75592 5.98418 5.4014 5.98855 6.04763C5.98855 6.2963 6.10928 6.42138 6.35071 6.42285C6.93424 6.42725 7.51524 6.42725 8.09366 6.42285C8.33874 6.42285 8.45032 6.3007 8.45251 6.04984C8.45032 5.72745 8.45032 5.40396 8.45032 5.08158H8.45251ZM8.45251 16.9504C8.45251 16.6203 8.45251 16.2902 8.45251 15.9601C8.45251 15.7114 8.33762 15.5926 8.09035 15.5904C7.5163 15.5904 6.94228 15.5904 6.36824 15.5904C6.11112 15.5904 5.98965 15.7115 5.98855 15.9689C5.98855 16.6148 5.98855 17.2606 5.98855 17.9054C5.98855 18.153 6.11218 18.2729 6.35616 18.274C6.93969 18.274 7.5203 18.274 8.09799 18.274C8.33432 18.274 8.44923 18.1541 8.45251 17.9186C8.45579 17.5962 8.45032 17.2739 8.45032 16.9504H8.45251ZM8.45251 12.9971C8.45251 12.667 8.45251 12.3369 8.45251 12.0068C8.45251 11.7724 8.35185 11.647 8.12427 11.6437C7.5236 11.6338 6.92072 11.6349 6.32224 11.6437C6.27718 11.6395 6.23174 11.6453 6.18916 11.6607C6.14658 11.6761 6.1079 11.7008 6.07585 11.7329C6.0438 11.765 6.01919 11.8038 6.00373 11.8466C5.98826 11.8894 5.98232 11.9351 5.98636 11.9804C5.98053 12.6472 5.98053 13.3136 5.98636 13.9796C5.98636 14.2052 6.10999 14.3163 6.33538 14.3174C6.92256 14.3174 7.50974 14.3174 8.09692 14.3174C8.33763 14.3174 8.44597 14.2074 8.44925 13.9653C8.45582 13.6429 8.45032 13.3194 8.45032 12.9971H8.45251ZM8.45251 9.04371C8.45251 8.71362 8.45251 8.38354 8.45251 8.05345C8.45251 7.81139 8.3431 7.70136 8.1013 7.70026C7.51777 7.70026 6.93424 7.70026 6.35071 7.70026C6.10016 7.70026 5.9842 7.8103 5.98311 8.06226C5.98311 8.70923 5.98311 9.35621 5.98311 10.0032C5.98311 10.243 6.09251 10.3696 6.32993 10.3729C6.92513 10.3806 7.52031 10.3817 8.11551 10.3729C8.34309 10.3729 8.44375 10.2474 8.44375 10.0164C8.45578 9.69069 8.45032 9.36719 8.45032 9.04371H8.45251ZM12.0008 4.77132H9.88688C9.78404 4.77132 9.68118 4.77132 9.57943 4.77132C9.53765 4.76834 9.49572 4.77396 9.45618 4.78787C9.41664 4.80177 9.38037 4.82366 9.34955 4.85218C9.31872 4.88069 9.29401 4.91525 9.27694 4.95372C9.25987 4.99218 9.25081 5.03374 9.25029 5.07586C9.24976 5.11798 9.25779 5.15977 9.2739 5.19865C9.29001 5.23753 9.31383 5.27268 9.34394 5.30196C9.37404 5.33124 9.40979 5.35403 9.44897 5.36893C9.48815 5.38382 9.52995 5.3905 9.57179 5.38856C9.61953 5.39131 9.66739 5.39131 9.71513 5.38856C11.2345 5.38856 12.7535 5.38856 14.2721 5.38856C14.3531 5.38856 14.4559 5.39956 14.5095 5.35665C14.5971 5.28623 14.7109 5.17181 14.7054 5.08268C14.6999 4.99356 14.5872 4.87144 14.4975 4.79332C14.4516 4.75371 14.3542 4.76912 14.2787 4.76912L12.0008 4.77132ZM12.0138 8.73235H9.65385C9.4022 8.73235 9.27093 8.83467 9.26765 9.02722C9.26437 9.21977 9.39344 9.3386 9.64071 9.3386C11.206 9.3386 12.7721 9.3386 14.3388 9.3386C14.5785 9.3386 14.7218 9.21647 14.7185 9.02942C14.7152 8.84237 14.5785 8.73235 14.3312 8.73235H12.0138Z" fill="#FF2D55"/>
<path d="M19.2284 11.2394L14.9822 15.5096L13.3738 13.8823L17.6168 9.61536L19.2284 11.2394Z" fill="#FF2D55"/>
<path d="M3.89113 6.84278H1.10001V6.62272C1.10001 5.59579 1.10001 4.56885 1.10001 3.54192C1.10001 2.54396 1.96109 1.94763 2.89109 2.29972C3.18189 2.40846 3.43301 2.60344 3.61119 2.85886C3.78937 3.11428 3.88623 3.4181 3.88894 3.73009C3.88894 4.72035 3.88894 5.69848 3.88894 6.68214L3.89113 6.84278Z" fill="#FF2D55"/>
<path d="M19.7394 10.7423L18.1157 9.1073C18.4439 8.77722 18.7722 8.40863 19.1289 8.06974C19.2233 7.98135 19.3486 7.93387 19.4776 7.93758C19.6065 7.94129 19.7289 7.99587 19.8181 8.08954C20.1354 8.39249 20.4444 8.70313 20.7449 9.02148C20.7927 9.06671 20.8311 9.12113 20.8577 9.1815C20.8843 9.24187 20.8986 9.30697 20.8999 9.373C20.9011 9.43903 20.8892 9.50463 20.8648 9.56595C20.8405 9.62728 20.8042 9.68306 20.758 9.73006C20.4254 10.0821 20.0709 10.4145 19.7394 10.7423Z" fill="#FF2D55"/>
<path d="M14.4943 16.007C13.8498 16.227 13.189 16.4603 12.5249 16.6837C12.306 16.7585 12.1266 16.5978 12.1966 16.3745C12.4154 15.6989 12.6539 15.0288 12.8815 14.3632L14.4943 16.007Z" fill="#FF2D55"/>
</svg>
