<svg width="22" height="22" viewBox="0 0 22 22" fill="none" xmlns="http://www.w3.org/2000/svg">
<path d="M18.6578 12.7546C17.6333 12.7546 16.6357 12.7546 15.6423 12.7578C15.4617 12.7568 15.2816 12.7772 15.1057 12.8184C14.4944 12.9696 14.2113 13.427 14.091 13.9943C13.9479 14.6406 13.9562 15.3113 14.1154 15.9539C14.3088 16.7164 14.7982 17.0967 15.5832 17.0998C16.5279 17.1039 17.4726 17.0998 18.4167 17.0998H18.6428C18.648 17.1562 18.6573 17.2034 18.6573 17.2552C18.6573 17.8302 18.6604 18.4057 18.6573 18.9812C18.6554 19.3866 18.4934 19.7747 18.2064 20.0613C17.9195 20.3479 17.5309 20.5097 17.1252 20.5114C12.6617 20.5139 8.19787 20.5139 3.73368 20.5114C3.32781 20.5101 2.93895 20.3483 2.652 20.0616C2.36505 19.7748 2.2033 19.3862 2.20207 18.9807C2.19931 16.2787 2.19931 13.5766 2.20207 10.8742C2.20317 10.4687 2.36488 10.0802 2.65188 9.79342C2.93887 9.50669 3.32781 9.34512 3.73368 9.34402C8.19752 9.34195 12.6614 9.34195 17.1252 9.34402C17.5309 9.34539 17.9197 9.50696 18.2067 9.79351C18.4937 10.0801 18.6557 10.4684 18.6573 10.8737C18.661 11.4933 18.6578 12.1128 18.6578 12.7546Z" fill="#00C7BE"/>
<path d="M4.88681 8.71989L6.25562 7.52068C7.59263 6.34996 8.93033 5.17959 10.2687 4.00956C10.6996 3.634 11.2678 3.66663 11.5992 4.10643C11.7225 4.27714 11.7973 4.47794 11.8159 4.68764C11.8485 5.09895 11.8309 5.51647 11.8205 5.92778C11.8166 5.96525 11.8044 6.00138 11.7848 6.03355C11.7651 6.06571 11.7386 6.09311 11.707 6.11374C10.0012 6.97055 8.2931 7.8232 6.58279 8.67171C6.53836 8.69753 6.4888 8.71327 6.43761 8.71782C5.9409 8.72092 5.4447 8.71989 4.88681 8.71989Z" fill="#00C7BE"/>
<path d="M17.3924 16.4788H15.6461C15.0467 16.4788 14.8113 16.3016 14.6905 15.7158C14.5782 15.1765 14.582 14.6196 14.7019 14.0819C14.815 13.5707 15.0649 13.3774 15.5886 13.3774C16.8039 13.3774 18.0194 13.3774 19.2351 13.3774C19.8179 13.3774 20.2078 13.7665 20.2093 14.3467C20.2093 14.7471 20.2093 15.148 20.2093 15.5485C20.2106 15.6712 20.1874 15.793 20.1409 15.9066C20.0944 16.0202 20.0256 16.1234 19.9386 16.21C19.8516 16.2967 19.7481 16.365 19.6342 16.4111C19.5203 16.4572 19.3984 16.48 19.2755 16.4783C18.6471 16.4809 18.0197 16.4788 17.3924 16.4788ZM16.4944 13.6867C16.2486 13.6844 16.0076 13.7548 15.8018 13.8892C15.5961 14.0235 15.4348 14.2157 15.3382 14.4416C15.2417 14.6674 15.2142 14.9167 15.2594 15.1581C15.3045 15.3995 15.4202 15.6222 15.5918 15.798C15.7634 15.9738 15.9833 16.0948 16.2237 16.1459C16.4641 16.197 16.7143 16.1758 16.9427 16.085C17.1711 15.9942 17.3674 15.8379 17.5069 15.6357C17.6465 15.4336 17.723 15.1947 17.7268 14.9491C17.7286 14.6191 17.6004 14.3016 17.3697 14.0654C17.1391 13.8291 16.8246 13.6931 16.4944 13.6867Z" fill="#00C7BE"/>
<path d="M17.7307 8.10723L16.4863 7.1748C17.4507 6.61638 17.8749 5.8062 17.7307 4.68832C17.5031 4.68832 17.2843 4.6992 17.0676 4.68262C16.9836 4.6764 16.8674 4.62615 16.8337 4.56088C16.8 4.49561 16.8239 4.36663 16.8716 4.30188C17.3306 3.66989 17.7957 3.04258 18.2668 2.41992C18.482 2.13346 18.8201 2.12413 19.0363 2.408C19.5167 3.03999 19.9899 3.67767 20.4559 4.32105C20.4792 4.35653 20.4941 4.39685 20.4995 4.43894C20.5049 4.48103 20.5006 4.52379 20.487 4.564C20.4559 4.62564 20.3496 4.67796 20.2723 4.68366C20.0546 4.69972 19.8353 4.68935 19.6056 4.68935C19.547 6.14239 18.9336 7.2784 17.7307 8.10723Z" fill="#00C7BE"/>
<path d="M14.6172 8.71252H7.90175C7.98834 8.66072 8.03396 8.63378 8.0827 8.60891C9.78697 7.76092 11.4928 6.91914 13.1893 6.05923C13.827 5.73495 14.4751 6.08824 14.598 6.62905C14.6077 6.65969 14.614 6.69131 14.6167 6.72333C14.6177 7.38225 14.6172 8.03961 14.6172 8.71252Z" fill="#00C7BE"/>
<path d="M15.8647 14.9124C15.8676 14.7889 15.9073 14.6691 15.9786 14.5682C16.0499 14.4674 16.1497 14.39 16.2653 14.3461C16.3808 14.3021 16.5068 14.2935 16.6272 14.3214C16.7477 14.3493 16.857 14.4124 16.9414 14.5027C17.0258 14.5929 17.0813 14.7063 17.101 14.8282C17.1206 14.9501 17.1035 15.0752 17.0517 15.1873C16.9999 15.2995 16.9159 15.3937 16.8103 15.4579C16.7047 15.5221 16.5824 15.5535 16.4589 15.548C16.378 15.5455 16.2984 15.5271 16.2247 15.4937C16.151 15.4604 16.0846 15.4128 16.0294 15.3537C15.9741 15.2947 15.9312 15.2252 15.9029 15.1495C15.8746 15.0737 15.8616 14.9932 15.8647 14.9124Z" fill="#00C7BE"/>
</svg>
