<svg width="20" height="20" viewBox="0 0 20 20" fill="none" xmlns="http://www.w3.org/2000/svg">
<path fill-rule="evenodd" clip-rule="evenodd" d="M7.73032 0.829591C8.49657 0.39962 9.20625 0.145813 10.0002 0.145813C10.7941 0.145813 11.5038 0.39962 12.27 0.829591C13.0124 1.24621 13.8631 1.86131 14.9329 2.63476L16.3162 3.63495C17.1747 4.25566 17.8603 4.75142 18.3775 5.21028C18.9115 5.68407 19.311 6.1564 19.5644 6.75051C19.8183 7.34594 19.8797 7.95623 19.8457 8.6599C19.8128 9.33897 19.687 10.1582 19.5299 11.1798L19.2409 13.0605C19.0178 14.5123 18.8401 15.6684 18.5792 16.569C18.3093 17.5002 17.9292 18.2396 17.2497 18.8047C16.573 19.3676 15.767 19.6182 14.7823 19.7378C13.8245 19.8541 12.6162 19.8541 11.09 19.8541H8.91035C7.38413 19.8541 6.17582 19.8541 5.21796 19.7378C4.23333 19.6182 3.42727 19.3676 2.75062 18.8047C2.07114 18.2396 1.69099 17.5002 1.42112 16.569C1.16015 15.6683 0.982505 14.5123 0.759415 13.0605L0.470427 11.1799C0.313411 10.1583 0.187498 9.33897 0.154626 8.6599C0.120554 7.95623 0.18198 7.34594 0.435933 6.75051C0.689336 6.1564 1.08883 5.68407 1.62283 5.21028C2.14001 4.75141 2.82568 4.25565 3.68418 3.63494L5.06746 2.63478C6.13721 1.86131 6.9879 1.24621 7.73032 0.829591ZM7.81327 13.86C7.41377 13.549 6.83782 13.6208 6.52685 14.0203C6.21588 14.4198 6.28764 14.9957 6.68713 15.3067C7.58389 16.0048 8.74553 16.4166 10.0002 16.4166C11.2548 16.4166 12.4165 16.0048 13.3133 15.3067C13.7128 14.9957 13.7845 14.4198 13.4735 14.0203C13.1626 13.6208 12.5866 13.549 12.1872 13.86C11.6181 14.303 10.8543 14.5833 10.0002 14.5833C9.14612 14.5833 8.38235 14.303 7.81327 13.86Z" fill="#34C759"/>
</svg>
