<svg width="22" height="22" viewBox="0 0 22 22" fill="none" xmlns="http://www.w3.org/2000/svg">
<path d="M0.604499 9.18649C0.665071 9.10816 0.730508 9.03308 0.785671 8.95151C1.20282 8.33139 1.61871 7.71073 2.03333 7.08953C2.07011 7.03551 2.11013 6.98149 2.15718 6.91559L10.0352 11.0706L8.0883 13.5106C7.773 13.3313 7.46474 13.1568 7.15755 12.9812C5.00655 11.7518 2.85609 10.522 0.706173 9.29182C0.67102 9.27183 0.638029 9.24861 0.603958 9.227L0.604499 9.18649Z" fill="#00C7BE"/>
<path d="M3.29404 6.13939L5.1804 5.21299C7.05811 4.29001 8.93546 3.36595 10.8124 2.44081C10.8606 2.41271 10.9153 2.3975 10.9711 2.39664C11.0269 2.39579 11.082 2.40933 11.131 2.43595C13.5816 3.59588 16.0327 4.75438 18.4844 5.91144C18.5261 5.93088 18.5661 5.95249 18.6283 5.98382C18.5575 6.02811 18.5039 6.06485 18.4471 6.09618C16.0095 7.43077 13.5728 8.76626 11.1369 10.1027C11.012 10.1713 10.9206 10.1804 10.7897 10.1113C8.36183 8.82388 5.93321 7.54133 3.50387 6.26363C3.43952 6.23014 3.37949 6.19071 3.29404 6.13939Z" fill="#00C7BE"/>
<path d="M2.5666 11.7535C2.64448 11.794 2.70937 11.8248 2.77157 11.8615L7.80115 14.7385C8.24624 14.9929 8.49393 14.9421 8.81085 14.5429C9.29217 13.9358 9.77458 13.3297 10.2581 12.7247C10.2762 12.6974 10.2918 12.6685 10.3046 12.6383L10.3451 12.6658V19.8675C10.2911 19.8431 10.237 19.8242 10.1829 19.7978C7.68938 18.4837 5.19622 17.168 2.70343 15.8507C2.63636 15.8151 2.55849 15.7184 2.55795 15.6498C2.54929 14.3836 2.552 13.1174 2.55254 11.8513C2.55533 11.8184 2.56002 11.7858 2.5666 11.7535Z" fill="#00C7BE"/>
<path d="M19.3599 11.7502C19.3648 11.848 19.3702 11.9074 19.3702 11.9663C19.3702 13.1114 19.3702 14.2571 19.3702 15.4023C19.3702 15.5282 19.3453 15.6092 19.2226 15.6762C16.724 17.0414 14.2271 18.4098 11.7317 19.7815C11.6863 19.8064 11.6387 19.8269 11.576 19.8571V12.6209C11.8702 12.9888 12.1374 13.3232 12.4034 13.6548C12.6479 13.96 12.8902 14.2669 13.1352 14.5731C13.431 14.9415 13.6846 14.9875 14.101 14.7498L19.1344 11.8728C19.2004 11.8339 19.2658 11.7993 19.3599 11.7502Z" fill="#00C7BE"/>
<path d="M19.7644 6.74493L21.3365 9.22326L13.8365 13.5128L11.8804 11.0631L19.7644 6.74493Z" fill="#00C7BE"/>
</svg>
