<svg width="22" height="22" viewBox="0 0 22 22" fill="none" xmlns="http://www.w3.org/2000/svg">
<path d="M17.2037 20.87H4.80711C4.79109 20.858 4.77331 20.8484 4.75438 20.8417C3.80007 20.5984 3.30552 19.9666 3.30605 18.9876C3.30605 16.3185 3.30692 13.6495 3.30868 10.9805C3.30868 8.59949 3.31009 6.21816 3.3129 3.83649C3.3129 3.41385 3.40728 3.02267 3.66088 2.67501C4.22767 1.89895 5.04067 1.9021 5.89323 1.96554C5.89323 2.20466 5.89323 2.43276 5.89323 2.66086C5.9043 3.64614 6.56863 4.30265 7.56143 4.30317C9.86407 4.30317 12.1664 4.30317 14.4683 4.30317C15.4638 4.30317 16.1355 3.62989 16.1365 2.63831C16.1365 2.41178 16.1365 2.18578 16.1365 1.96187C16.5056 1.96187 16.852 1.9215 17.1857 1.96974C18.0942 2.10136 18.7 2.82918 18.7 3.7442C18.7 7.48469 18.6986 11.2266 18.6958 14.9699C18.6958 16.3175 18.6947 17.6651 18.6926 19.0127C18.6926 19.6561 18.4569 20.1931 17.9112 20.5544C17.7008 20.6954 17.4414 20.7667 17.2037 20.87ZM13.3205 15.6861C12.6298 15.6861 11.9391 15.6861 11.249 15.6861C10.8873 15.6861 10.6163 15.9483 10.6163 16.275C10.6163 16.6017 10.8894 16.8623 11.249 16.8628C12.6235 16.866 13.998 16.8691 15.3725 16.8571C15.5343 16.8494 15.6898 16.7924 15.8181 16.694C16.0137 16.5409 16.0616 16.3143 15.9762 16.0731C15.8929 15.8408 15.6683 15.6877 15.392 15.6861C14.7014 15.6861 14.0112 15.6861 13.3205 15.6861ZM13.3158 9.01462C14.0012 9.01462 14.684 9.01776 15.3678 9.01462C15.7369 9.01462 15.9926 8.76554 15.9915 8.42365C15.9905 8.08177 15.7358 7.83846 15.363 7.83793C13.9949 7.83531 12.6267 7.83374 11.2585 7.84161C11.1218 7.84616 10.9887 7.88572 10.872 7.95644C10.6516 8.0912 10.5741 8.34919 10.6474 8.59198C10.7244 8.84839 10.9484 9.01147 11.2437 9.01462C11.9333 9.01724 12.624 9.01462 13.3158 9.01462ZM13.3158 12.9406C14.0065 12.9406 14.6971 12.9448 15.3878 12.9406C15.7442 12.9374 15.9926 12.6847 15.9915 12.3501C15.993 12.2728 15.9788 12.1961 15.9497 12.1244C15.9206 12.0527 15.8772 11.9877 15.8221 11.9331C15.767 11.8786 15.7014 11.8357 15.6292 11.8071C15.557 11.7785 15.4798 11.7646 15.4021 11.7665C14.0077 11.7609 12.6131 11.7609 11.2184 11.7665C11.0923 11.7648 10.9691 11.8034 10.8667 11.8765C10.7643 11.9497 10.6882 12.0535 10.6495 12.1729C10.5235 12.562 10.8077 12.9369 11.2426 12.9406C11.9333 12.9448 12.624 12.9406 13.3158 12.9406ZM7.32259 8.23174C7.19025 8.08124 7.10009 7.95959 6.99095 7.85786C6.88432 7.75341 6.74123 7.69399 6.59157 7.69204C6.44192 7.69008 6.2973 7.74574 6.18796 7.84737C6.13067 7.89738 6.08403 7.95828 6.05079 8.02649C6.01754 8.0947 5.99836 8.16884 5.99438 8.24454C5.9904 8.32024 6.0017 8.39596 6.02761 8.46725C6.05352 8.53854 6.09352 8.60395 6.14525 8.65962C6.3978 8.93386 6.66406 9.19762 6.94033 9.44879C6.99202 9.50024 7.05357 9.54083 7.12133 9.56818C7.18909 9.59552 7.26168 9.60906 7.33479 9.60799C7.40791 9.60691 7.48006 9.59124 7.54698 9.56192C7.6139 9.53259 7.67421 9.4902 7.72435 9.43726C8.33419 8.84297 8.93806 8.24187 9.53595 7.63396C9.58853 7.57951 9.62978 7.51526 9.65732 7.44491C9.68486 7.37456 9.69815 7.29949 9.69644 7.22402C9.69472 7.14855 9.67803 7.07415 9.64733 7.00511C9.61662 6.93607 9.5725 6.87374 9.5175 6.82171C9.46208 6.76782 9.39647 6.72538 9.32446 6.69684C9.25245 6.6683 9.17547 6.65424 9.09797 6.65546C9.02046 6.65668 8.94397 6.67316 8.8729 6.70394C8.80184 6.73473 8.73761 6.77921 8.68393 6.83482C8.35387 7.15364 8.03067 7.47927 7.70853 7.80542C7.5841 7.92865 7.4718 8.06446 7.32153 8.23174H7.32259ZM7.30624 12.4267C7.19236 12.2998 7.10009 12.1786 6.9899 12.078C6.87873 11.9702 6.72906 11.9107 6.57383 11.9127C6.41859 11.9147 6.27049 11.9779 6.16212 12.0885C6.05375 12.199 5.99398 12.3479 5.99596 12.5023C5.99793 12.6566 6.0615 12.8039 6.17267 12.9117C6.40887 13.1564 6.65035 13.3968 6.8971 13.6327C7.16072 13.8855 7.49605 13.8891 7.75861 13.6327C8.34807 13.0559 8.93121 12.4702 9.51434 11.8861C9.58195 11.8233 9.63313 11.7451 9.66345 11.6582C9.69377 11.5713 9.70231 11.4783 9.68833 11.3874C9.65406 11.1546 9.52594 10.9847 9.29975 10.9154C9.19382 10.8771 9.07889 10.8705 8.96923 10.8965C8.85957 10.9225 8.76 10.98 8.68287 11.0617L7.30624 12.4267ZM7.31151 16.3468C7.20923 16.2357 7.12276 16.1298 7.02469 16.0354C6.76107 15.7811 6.39833 15.7763 6.1637 16.0186C5.92908 16.2608 5.94121 16.6027 6.19323 16.8602C6.41783 17.0899 6.64631 17.3171 6.87864 17.5419C7.16705 17.8208 7.49447 17.8203 7.7834 17.5387C8.07233 17.2571 8.36969 16.9572 8.66178 16.6662C8.95388 16.3752 9.24175 16.0962 9.52383 15.8047C9.61658 15.7148 9.67642 15.5966 9.69381 15.469C9.7112 15.3414 9.68514 15.2116 9.61979 15.1004C9.5619 14.9927 9.46953 14.9073 9.35731 14.8577C9.24509 14.8081 9.11944 14.7972 9.00028 14.8267C8.86898 14.8632 8.74909 14.9321 8.65176 15.027C8.20519 15.4518 7.77285 15.8891 7.31046 16.3484L7.31151 16.3468Z" fill="#FF9500"/>
<path d="M11.0064 3.12466H7.55403C7.20815 3.12466 7.06527 2.98256 7.06369 2.63595C7.06369 2.178 7.06369 1.72023 7.06369 1.26263C7.06369 0.913929 7.20657 0.771301 7.55139 0.771301H14.4757C14.8216 0.771301 14.956 0.900819 14.9576 1.24009C14.9597 1.71796 14.9597 2.19531 14.9576 2.67213C14.9576 2.98675 14.8152 3.12466 14.4984 3.12466H11.0064Z" fill="#FF9500"/>
</svg>
