<svg width="22" height="22" viewBox="0 0 22 22" fill="none" xmlns="http://www.w3.org/2000/svg">
<path d="M17.297 7.20067L15.7403 9.29167C15.6203 9.45285 15.4321 9.5487 15.2313 9.55085C15.0298 9.55351 14.8403 9.46115 14.7169 9.30258L13.1161 7.24522C12.8977 6.96451 12.9479 6.55961 13.2282 6.34082C13.5085 6.12206 13.9128 6.17228 14.1312 6.45303L14.559 7.00283V4.44735C14.559 4.09146 14.8471 3.80294 15.2025 3.80294C15.5578 3.80294 15.8459 4.09146 15.8459 4.44735V6.99373L16.2654 6.43026C16.3917 6.26057 16.5854 6.171 16.7817 6.171C16.9154 6.171 17.0503 6.21262 17.1658 6.29885C17.4507 6.51163 17.5095 6.91537 17.297 7.20067Z" fill="#34C759"/>
<path d="M21.5509 2.6725L19.9942 0.581501C19.8742 0.420314 19.686 0.32447 19.4852 0.322322C19.2837 0.319658 19.0942 0.412023 18.9708 0.570589L17.37 2.62795C17.1516 2.90865 17.2018 3.31355 17.4821 3.53235C17.7624 3.7511 18.1667 3.70088 18.3851 3.42014L18.8129 2.87033V5.42582C18.8129 5.7817 19.101 6.07022 19.4564 6.07022C19.8117 6.07022 20.0998 5.7817 20.0998 5.42582V2.8794L20.5193 3.44286C20.6456 3.61256 20.8393 3.70213 21.0356 3.70213C21.1693 3.70213 21.3042 3.6605 21.4197 3.57428C21.7046 3.36154 21.7633 2.9578 21.5509 2.6725Z" fill="#34C759"/>
<path d="M15.8475 6.674V8.88748C15.8475 9.24267 15.5689 9.54572 15.2142 9.55121C15.0696 9.55345 14.9364 9.50804 14.8279 9.42972C14.99 9.31287 15.0955 9.12213 15.0955 8.9069V6.58099C15.0955 6.35657 15.3811 6.26167 15.5151 6.44163C15.6013 6.55758 15.7193 6.63619 15.8475 6.674Z" fill="#5DAA07"/>
<path d="M20.0995 3.19253V5.40537C20.0995 5.7588 19.824 6.06154 19.4711 6.06962C19.3251 6.07297 19.1896 6.02743 19.0803 5.94821C19.242 5.83136 19.3476 5.64062 19.3476 5.42539V3.09948C19.3476 2.87506 19.6332 2.78016 19.7671 2.96012C19.8533 3.07611 19.9708 3.1543 20.0995 3.19253Z" fill="#5DAA07"/>
<path d="M21.4194 3.5744C21.3041 3.66032 21.1689 3.70199 21.0355 3.70199C20.9017 3.70199 20.7692 3.66075 20.6585 3.58085C20.6615 3.5787 20.6645 3.57655 20.6675 3.5744C20.9523 3.36175 21.0111 2.95792 20.7987 2.67267L19.2421 0.581365C19.2022 0.528094 19.1546 0.481697 19.1018 0.443892C19.212 0.363986 19.3459 0.320596 19.4849 0.322315C19.6856 0.324463 19.8739 0.420264 19.994 0.581365L21.5507 2.67267C21.763 2.95797 21.7043 3.36175 21.4194 3.5744Z" fill="#5DAA07"/>
<path d="M13.6419 10.492C12.5454 9.01469 10.7513 7.70801 10.7513 7.70801C10.7477 7.70801 5.14117 7.70801 5.13765 7.70801C5.13765 7.70801 3.3435 9.01469 2.24701 10.492C0.736016 12.5278 -0.301884 15.6621 0.744981 18.174C2.05827 21.325 5.48399 21.7176 8.45605 21.6726C11.0798 21.6328 14.0402 20.8223 15.1439 18.174C16.1908 15.6621 15.1528 12.5278 13.6419 10.492Z" fill="#34C759"/>
<path d="M15.1459 18.177C14.0422 20.8251 11.0816 21.6358 8.45766 21.6757C8.14839 21.6804 7.83396 21.6804 7.51782 21.6727C10.1048 21.6052 12.9767 20.7761 14.0598 18.177C15.1069 15.6651 14.0688 12.5308 12.558 10.4949C11.4612 9.01748 9.66732 7.71106 9.66732 7.71106H10.753C10.753 7.71106 12.5473 9.01748 13.6437 10.4949C15.1545 12.5308 16.1926 15.6651 15.1459 18.177Z" fill="#5DAA07"/>
<path d="M11.7765 1.99445H4.11304C3.6508 1.99445 3.2849 2.38641 3.31579 2.84832C3.45198 4.88386 5.13563 6.04826 5.13563 6.04826H10.7539C10.7539 6.04826 12.4376 4.88382 12.5737 2.84832C12.6047 2.38646 12.2387 1.99445 11.7765 1.99445Z" fill="#34C759"/>
<path d="M12.571 2.84849C12.4346 4.88395 10.751 6.0486 10.751 6.0486H9.72534C9.72534 6.0486 11.409 4.88395 11.545 2.84849C11.5759 2.38667 11.21 1.99445 10.748 1.99445H11.7736C12.236 1.99445 12.6019 2.38667 12.571 2.84849Z" fill="#5DAA07"/>
<path d="M5.13306 6.04901H10.7513V7.70994H5.13306V6.04901Z" fill="#5DAA07"/>
<path d="M20.3273 21.677H14.5227C14.02 21.677 13.6125 21.2689 13.6125 20.7655V20.107C13.6125 19.6036 14.02 19.1955 14.5227 19.1955H20.3273C20.8299 19.1955 21.2374 19.6036 21.2374 20.107V20.7655C21.2374 21.2689 20.8299 21.677 20.3273 21.677Z" fill="#34C759"/>
<path d="M20.3273 16.7136H14.5227C14.02 16.7136 13.6125 16.3055 13.6125 15.8021V15.1435C13.6125 14.6401 14.02 14.2321 14.5227 14.2321H20.3273C20.8299 14.2321 21.2374 14.6401 21.2374 15.1435V15.8021C21.2374 16.3055 20.8299 16.7136 20.3273 16.7136Z" fill="#34C759"/>
<path d="M20.3273 19.1956H14.5227C14.02 19.1956 13.6125 18.7875 13.6125 18.2841V17.6256C13.6125 17.1222 14.02 16.7141 14.5227 16.7141H20.3273C20.8299 16.7141 21.2374 17.1222 21.2374 17.6256V18.2841C21.2374 18.7875 20.8299 19.1956 20.3273 19.1956Z" fill="#34C759"/>
<path d="M20.3273 14.2316H14.5227C14.02 14.2316 13.6125 13.8235 13.6125 13.3201V12.6615C13.6125 12.1581 14.02 11.7501 14.5227 11.7501H20.3273C20.8299 11.7501 21.2374 12.1581 21.2374 12.6615V13.3201C21.2374 13.8234 20.8299 14.2316 20.3273 14.2316Z" fill="#34C759"/>
<path d="M21.2377 20.1067V20.7653C21.2377 21.2688 20.8302 21.6769 20.3275 21.6769H19.4348C19.9375 21.6769 20.3451 21.2688 20.3451 20.7653V20.1067C20.3451 19.6036 19.9375 19.1955 19.4348 19.1955H20.3275C20.8302 19.1955 21.2377 19.6036 21.2377 20.1067Z" fill="#5DAA07"/>
<path d="M21.2377 15.1437V15.8023C21.2377 16.3053 20.8302 16.7134 20.3275 16.7134H19.4348C19.9375 16.7134 20.3451 16.3053 20.3451 15.8023V15.1437C20.3451 14.6402 19.9375 14.2321 19.4348 14.2321H20.3275C20.8302 14.2321 21.2377 14.6402 21.2377 15.1437Z" fill="#5DAA07"/>
<path d="M13.3226 17.6257V18.2843C13.3226 18.7878 13.7301 19.1959 14.2328 19.1959H15.1255C14.6228 19.1959 14.2152 18.7878 14.2152 18.2843V17.6257C14.2152 17.1222 14.6228 16.7141 15.1255 16.7141H14.2328C13.7301 16.7141 13.3226 17.1222 13.3226 17.6257Z" fill="#5DAA07"/>
<path d="M13.4405 12.6612V13.3198C13.4405 13.8233 13.848 14.2314 14.3508 14.2314H15.2434C14.7407 14.2314 14.3332 13.8233 14.3332 13.3198V12.6612C14.3332 12.1582 14.7407 11.7501 15.2434 11.7501H14.3508C13.848 11.7501 13.4405 12.1582 13.4405 12.6612Z" fill="#5DAA07"/>
<path d="M5.75073 15.343C5.75073 15.5209 5.89473 15.6652 6.07245 15.6652H6.75873C7.16148 16.8225 8.26128 17.6555 9.55234 17.6555C9.6525 17.6555 9.75232 17.6503 9.84905 17.6403C10.0258 17.6219 10.1542 17.4636 10.1358 17.2866C10.1175 17.1096 9.95959 16.9808 9.78265 16.9993C9.70793 17.0071 9.63046 17.011 9.55239 17.011C8.62267 17.011 7.81975 16.4589 7.45197 15.6652H9.16358C9.3413 15.6652 9.4853 15.5209 9.4853 15.343C9.4853 15.165 9.3413 15.0208 9.16358 15.0208H7.2613C7.24607 14.9136 7.2377 14.8042 7.2377 14.6929C7.2377 14.5815 7.24607 14.4722 7.2613 14.365H9.16354C9.34125 14.365 9.48525 14.2207 9.48525 14.0428C9.48525 13.8648 9.34125 13.7206 9.16354 13.7206H7.45192C7.81971 12.9268 8.62263 12.3747 9.55234 12.3747C9.73006 12.3747 9.87406 12.2305 9.87406 12.0525C9.87406 11.8746 9.73006 11.7303 9.55234 11.7303C8.26128 11.7303 7.16148 12.5633 6.75873 13.7206H6.07245C5.89473 13.7206 5.75073 13.8648 5.75073 14.0428C5.75073 14.2207 5.89473 14.365 6.07245 14.365H6.6128C6.60088 14.4727 6.59427 14.582 6.59427 14.6929C6.59427 14.8037 6.60092 14.9131 6.6128 15.0208H6.07245C5.89473 15.0208 5.75073 15.1651 5.75073 15.343Z" fill="white"/>
</svg>
