<svg width="22" height="16" viewBox="0 0 22 16" fill="none" xmlns="http://www.w3.org/2000/svg">
<path d="M10.9533 10.3276C14.0985 10.3276 16.7841 10.8263 16.7841 12.8216C16.7841 14.8162 14.1157 15.333 10.9533 15.333C7.808 15.333 5.12239 14.8344 5.12239 12.8398C5.12239 10.8444 7.79076 10.3276 10.9533 10.3276ZM15.9821 9.12613C17.1846 9.10384 18.4773 9.26895 18.955 9.38618C19.967 9.58514 20.6327 9.99131 20.9085 10.5816C21.1416 11.0662 21.1416 11.6284 20.9085 12.1122C20.4866 13.0277 19.1266 13.3216 18.598 13.3976C18.4888 13.4141 18.401 13.3191 18.4125 13.2093C18.6825 10.6724 16.5345 9.46956 15.9788 9.193C15.955 9.18061 15.9501 9.16162 15.9526 9.15007C15.9542 9.14181 15.9641 9.1286 15.9821 9.12613ZM6.01844 9.12646C6.0365 9.12893 6.04553 9.14214 6.04717 9.14957C6.04963 9.16195 6.04471 9.18012 6.02172 9.19333C5.46523 9.46989 3.31723 10.6727 3.58727 13.2088C3.59876 13.3195 3.51176 13.4136 3.4026 13.3979C2.87401 13.3219 1.51397 13.028 1.09208 12.1125C0.85816 11.6279 0.85816 11.0665 1.09208 10.5819C1.36787 9.99164 2.0327 9.58546 3.04473 9.38568C3.52325 9.26928 4.81517 9.10417 6.01844 9.12646ZM10.9533 0.666321C13.0947 0.666321 14.8118 2.39173 14.8118 4.54643C14.8118 6.70031 13.0947 8.42737 10.9533 8.42737C8.81182 8.42737 7.09474 6.70031 7.09474 4.54643C7.09474 2.39173 8.81182 0.666321 10.9533 0.666321ZM16.1914 1.31339C18.2598 1.31339 19.8841 3.27078 19.3309 5.45108C18.9575 6.91892 17.6056 7.8939 16.0995 7.85427C15.9485 7.85015 15.7999 7.83611 15.6563 7.81134C15.552 7.79318 15.4995 7.67513 15.5586 7.58762C16.1331 6.7373 16.4606 5.71443 16.4606 4.61644C16.4606 3.47057 16.1028 2.4023 15.4814 1.52639C15.4617 1.49914 15.447 1.45704 15.4667 1.42567C15.4831 1.40008 15.5135 1.38687 15.5422 1.38026C15.7515 1.33733 15.9665 1.31339 16.1914 1.31339ZM5.80791 1.31331C6.0328 1.31331 6.24785 1.33725 6.45797 1.38018C6.48588 1.38678 6.51707 1.40082 6.53348 1.42558C6.55236 1.45696 6.53841 1.49906 6.51871 1.5263C5.89738 2.40222 5.53951 3.47049 5.53951 4.61636C5.53951 5.71435 5.86701 6.73721 6.44156 7.58754C6.50065 7.67504 6.44812 7.7931 6.34388 7.81126C6.19942 7.83685 6.05168 7.85006 5.90066 7.85419C4.39452 7.89382 3.04268 6.91884 2.66922 5.451C2.11519 3.2707 3.73953 1.31331 5.80791 1.31331Z" fill="#FF9500"/>
</svg>
