<svg width="22" height="22" viewBox="0 0 22 22" fill="none" xmlns="http://www.w3.org/2000/svg">
<g clip-path="url(#clip0_206_9672)">
<path d="M5.8693 5.38418V10.2397C5.8693 10.7381 6.27321 11.142 6.77165 11.142H8.93727L8.93297 5.37988H5.8693V5.38418Z" fill="#AF52DE"/>
<path d="M11.2315 5.37665L11.2358 11.1388H13.453C13.9515 11.1388 14.3554 10.7349 14.3554 10.2364V5.37665H11.2315Z" fill="#AF52DE"/>
<path d="M11.2324 5.37646H8.93353V11.1386H11.2324V5.37646Z" fill="#F1F0FD"/>
<path d="M5.31071 3.29654C5.52555 3.0774 5.82204 2.95279 6.13141 2.95279H7.08532L6.95641 2.81959C6.51813 2.3942 6.50954 1.69381 6.93493 1.25983C7.36032 0.821546 8.06071 0.812952 8.49469 1.23834C8.49899 1.24264 8.50758 1.25123 8.51188 1.25553L10.0845 2.81959L11.2361 1.66373C11.4423 1.45748 11.7216 1.33717 12.0138 1.33717C12.624 1.33717 13.1181 1.83131 13.1181 2.44147C13.1181 2.61334 13.0795 2.78522 13.0021 2.93561H14.0849H14.0892C14.7295 2.93561 15.2494 3.45553 15.2494 4.09576L15.2537 5.37623C15.2537 5.51803 15.1377 5.63404 14.9959 5.63404H14.6134V10.236C14.6134 10.8762 14.0935 11.3961 13.4533 11.3961H6.77594C6.13571 11.3961 5.61579 10.8762 5.61579 10.236V5.63404H5.23766C5.09586 5.63404 4.97985 5.51803 4.97985 5.37623L4.97555 4.11725C4.97126 3.80787 5.09157 3.51139 5.31071 3.29654ZM8.14665 1.62076C7.91462 1.39303 7.54508 1.39303 7.31305 1.62506C7.08532 1.85709 7.08532 2.22662 7.31735 2.45865L7.7986 2.9485H9.47868L8.14665 1.62076ZM12.4349 2.02467C12.3232 1.91295 12.1771 1.8528 12.0181 1.8528C11.8634 1.8528 11.7131 1.91295 11.6013 2.02467L10.6861 2.9399L12.3619 2.92272L12.4349 2.84967C12.6627 2.62623 12.6627 2.2567 12.4349 2.02467ZM11.4896 10.8848H13.449C13.8056 10.8848 14.0935 10.5969 14.0935 10.2403V5.63404H11.4853L11.4896 10.8848ZM11.4896 5.11842H14.7381V4.09576C14.7381 3.73912 14.4502 3.45123 14.0935 3.45123L11.4939 3.45553L11.4896 5.11842ZM9.19508 10.8848H10.9783L10.974 5.63834H9.19079L9.19508 10.8848ZM9.19079 5.11842H10.974V3.45983L9.19079 3.46412V5.11842ZM6.12712 10.236C6.12712 10.5926 6.41501 10.8805 6.77165 10.8805H8.67946L8.67516 5.63404H6.12712V10.236ZM5.49118 5.11842H8.67516V3.46412L6.13141 3.46842C5.77477 3.46842 5.48688 3.76061 5.48688 4.11725L5.49118 5.11842Z" fill="#AF52DE"/>
<path d="M5.01877 13.3928L4.99728 13.4357L6.82346 14.4197C7.16291 14.1232 7.60549 13.9428 8.09104 13.9428H8.66252L7.14143 13.1178C6.45393 12.7182 5.58166 12.8299 5.01877 13.3928Z" fill="#F1F0FD"/>
<path d="M2.88261 13.7704C3.20058 13.2118 3.95683 12.8938 4.52831 13.186L6.82285 14.4235C6.49628 14.7114 6.26855 15.1067 6.1955 15.5579L5.72285 15.3086L2.88261 13.7704Z" fill="#F1F0FD"/>
<path d="M2.53974 13.5898L6.19638 15.5577C6.26943 15.1066 6.49716 14.7113 6.82373 14.4234C7.16318 14.1269 7.60576 13.9464 8.0913 13.9464H8.66279H10.6694C11.1335 13.9464 11.589 13.8433 12.0015 13.6413L12.2679 13.5124C13.7159 12.812 15.4304 12.9796 16.7151 13.9464L17.3554 14.5179C17.7034 14.823 21.5276 16.778 21.5276 16.778L18.8936 20.8085L15.0222 18.5956C14.6999 18.4152 14.3261 18.3679 13.9694 18.4581L10.0979 19.1714C9.10537 19.3519 8.08271 19.2058 7.18037 18.7589L0.477242 14.157C0.902632 13.4437 1.80927 13.1945 2.53974 13.5898Z" fill="#AF52DE"/>
<path d="M0.253542 14.0206C0.75198 13.1913 1.80901 12.9034 2.66409 13.3632L2.80159 13.4362C3.25276 12.8733 4.04768 12.6499 4.64925 12.955C4.64925 12.955 4.65354 12.955 4.65354 12.9593L4.94143 13.114C5.58596 12.5554 6.52268 12.4608 7.26604 12.8905L8.72698 13.6854H10.6692C10.6692 13.6854 10.6692 13.6854 10.6735 13.6854C11.0903 13.6854 11.5157 13.5866 11.8938 13.4061L12.1602 13.2772C13.6985 12.5339 15.5074 12.71 16.8739 13.737C16.8782 13.7413 16.8867 13.7456 16.891 13.7499L17.5313 14.3214C17.7633 14.5276 20.1824 15.7995 21.6477 16.5515C21.7121 16.5858 21.7594 16.646 21.7809 16.7147C21.7981 16.7835 21.7895 16.8608 21.7465 16.921L19.1125 20.9515C19.0653 21.0288 18.9793 21.0675 18.8977 21.0675C18.8547 21.0675 18.8117 21.0546 18.7688 21.0331L14.8973 18.8202C14.6352 18.6741 14.3258 18.6311 14.0336 18.7042C14.0293 18.7042 14.025 18.7085 14.0164 18.7085L10.1407 19.4218C9.10081 19.6108 8.0094 19.4561 7.05979 18.9878C7.0469 18.9835 7.03831 18.9749 7.02971 18.9706L0.32659 14.3686C0.21487 14.2913 0.180494 14.1366 0.253542 14.0206ZM4.41292 13.4147C4.05628 13.2343 3.57073 13.3632 3.26565 13.6854L6.02854 15.1722C6.11018 14.9229 6.23909 14.6909 6.40667 14.4847L4.41292 13.4147ZM7.01682 13.3417L7.01253 13.3374C6.51409 13.0495 5.90823 13.0753 5.43987 13.3804L6.79339 14.1108C7.06409 13.9089 7.37776 13.7757 7.70862 13.7155L7.01682 13.3417ZM7.30471 18.5323C8.1469 18.9448 9.12229 19.0823 10.0461 18.9147L13.9133 18.2015C14.3344 18.0983 14.7727 18.1585 15.1508 18.369L18.8117 20.4616L21.1535 16.878C20.1653 16.371 17.5012 14.9917 17.1832 14.7081L16.5516 14.1452C15.3399 13.2386 13.7414 13.0839 12.3793 13.7456L12.1129 13.8745C11.666 14.0893 11.1676 14.2054 10.6692 14.2054H10.6649H8.08675C7.68284 14.2054 7.29612 14.3515 6.99104 14.6179C6.70315 14.8714 6.51409 15.2151 6.44964 15.5933L8.35745 15.5073C9.03206 15.4772 9.71526 15.5073 10.3856 15.6018C10.5274 15.6233 10.6262 15.7522 10.6047 15.894C10.5832 16.0358 10.4543 16.1347 10.3125 16.1132C9.67229 16.0229 9.02346 15.9929 8.37893 16.0229L6.17893 16.1218H6.16604C6.10159 16.1218 6.03714 16.096 5.98987 16.0487C5.93831 16.0015 5.90823 15.9327 5.90823 15.864C5.90823 15.8124 5.90823 15.7608 5.91253 15.705L2.41057 13.8186C1.87346 13.5265 1.22034 13.6554 0.829323 14.0936L7.30471 18.5323Z" fill="#AF52DE"/>
</g>
<defs>
<clipPath id="clip0_206_9672">
<rect width="22" height="22" fill="white" transform="matrix(-1 0 0 1 22 0)"/>
</clipPath>
</defs>
</svg>
