<svg width="22" height="22" viewBox="0 0 22 22" fill="none" xmlns="http://www.w3.org/2000/svg">
<path d="M2.2 3.49347C2.32033 3.26785 2.41127 3.01519 2.56743 2.82152C2.9886 2.29654 3.53838 2.09452 4.17082 2.2523C4.77892 2.40419 5.18125 2.82103 5.37002 3.4625C5.42238 3.63995 5.40217 3.66994 5.23223 3.66994C4.27752 3.66994 3.32267 3.66994 2.36766 3.66994C2.31143 3.66548 2.25564 3.65595 2.20092 3.64143L2.2 3.49347Z" fill="#5856D6"/>
<path d="M3.0364 7.04983L2.75118 7.07244V7.29561C2.75118 8.96688 2.75118 10.6382 2.75118 12.3094C2.75118 12.5346 2.65932 12.6889 2.50133 12.6732C2.39753 12.6629 2.30063 12.5655 2.2005 12.5075V6.65806C2.28914 6.5106 2.41636 6.45653 2.57894 6.47127C2.73189 6.48455 2.88575 6.48405 3.03823 6.48946L3.03411 6.48455L3.0309 7.05622L3.0364 7.04983Z" fill="#5856D6"/>
<path d="M5.28459 2.20428H5.42238C8.77336 2.20428 12.1243 2.20428 15.4753 2.20428C16.1762 2.20428 16.7274 2.68945 16.8633 3.4253C16.8796 3.53416 16.8861 3.64445 16.8826 3.75464C16.8826 8.35261 16.8826 12.9506 16.8826 17.5486V17.7299H9.8775C9.43704 17.7299 9.3066 17.8504 9.24505 18.3129C9.13804 19.1196 8.43074 19.7723 7.64949 19.7876C6.86824 19.8028 6.14713 19.1741 6.0199 18.3621C5.99663 18.205 5.98528 18.0462 5.98593 17.8872C5.98593 13.3138 5.98699 8.74028 5.98914 4.16656C5.98914 3.42333 5.80543 2.78087 5.30251 2.25737C5.29562 2.25344 5.29516 2.23869 5.28459 2.20428ZM12.9419 5.10444C12.249 5.10444 11.5557 5.10444 10.8622 5.10444C10.6532 5.10444 10.5311 5.20816 10.5251 5.38364C10.5191 5.55912 10.6514 5.68594 10.8636 5.68594C12.2504 5.68791 13.6368 5.68791 15.0229 5.68594C15.2411 5.68594 15.3683 5.57092 15.3674 5.39101C15.3665 5.21111 15.242 5.10395 15.0216 5.10345L12.9419 5.10444ZM12.9451 7.56957C12.2461 7.56957 11.547 7.56957 10.8484 7.56957C10.6831 7.56957 10.5692 7.63347 10.5324 7.81141C10.492 8.00803 10.6376 8.15255 10.8778 8.15304C12.2584 8.15304 13.6391 8.15304 15.0197 8.15304C15.2379 8.15304 15.366 8.04048 15.3674 7.86155C15.3688 7.68263 15.2438 7.57104 15.0248 7.57104C14.3321 7.57104 13.6391 7.57137 12.9455 7.57203L12.9451 7.56957ZM12.9451 10.0347C12.2461 10.0347 11.547 10.0347 10.848 10.0347C10.6587 10.0347 10.5467 10.1296 10.5265 10.2942C10.5067 10.4781 10.6431 10.6157 10.8622 10.6162C12.2484 10.6182 13.6348 10.6182 15.0216 10.6162C15.2397 10.6162 15.3669 10.5027 15.3669 10.3213C15.3669 10.1399 15.2429 10.0332 15.022 10.0327C14.3294 10.035 13.6366 10.0365 12.9437 10.0372L12.9451 10.0347ZM12.9451 13.0823C13.6441 13.0823 14.3427 13.0823 15.0418 13.0823C15.2452 13.0823 15.3697 12.9604 15.3683 12.7874C15.3669 12.6144 15.2443 12.5023 15.0385 12.5018H10.8622C10.6532 12.5018 10.5315 12.6055 10.526 12.7815C10.5205 12.9575 10.6482 13.073 10.8475 13.0838C10.8935 13.0838 10.9394 13.0838 10.9853 13.0838L12.9451 13.0823ZM12.9451 14.965C12.2464 14.965 11.5475 14.965 10.8484 14.965C10.6597 14.965 10.5471 15.0598 10.5269 15.224C10.5072 15.4078 10.6431 15.546 10.8627 15.5465C12.2488 15.5484 13.6351 15.5484 15.0216 15.5465C15.2406 15.5465 15.3674 15.4324 15.3674 15.2515C15.3674 15.0706 15.2429 14.964 15.0225 14.9635L12.9451 14.965ZM8.36596 5.49768C8.22818 5.32662 8.11061 5.16982 7.98292 5.02235C7.95997 4.99289 7.93178 4.9686 7.89999 4.95088C7.86821 4.93316 7.83346 4.92237 7.79775 4.91912C7.76204 4.91588 7.72609 4.92024 7.69196 4.93197C7.65784 4.9437 7.62623 4.96256 7.59896 4.98745C7.5715 5.01235 7.549 5.04291 7.53281 5.0773C7.51661 5.1117 7.50704 5.14924 7.50468 5.18768C7.50233 5.22611 7.50723 5.26466 7.51908 5.30103C7.53093 5.3374 7.5495 5.37084 7.57369 5.39937C7.76108 5.64515 7.95262 5.89092 8.15011 6.12932C8.28422 6.29104 8.4491 6.2935 8.58 6.12932C8.87578 5.76361 9.16667 5.39314 9.45265 5.01793C9.47658 4.98957 9.49478 4.95622 9.50607 4.91998C9.51737 4.88374 9.52151 4.84538 9.51827 4.80734C9.51504 4.76929 9.50448 4.73237 9.48726 4.6989C9.47003 4.66544 9.44653 4.63615 9.41821 4.61289C9.30384 4.51015 9.13713 4.52834 9.02276 4.66892C8.8069 4.93535 8.59515 5.20865 8.36596 5.49768ZM8.36596 7.96281C8.22818 7.79028 8.106 7.62856 7.97373 7.47765C7.92704 7.42257 7.86229 7.38891 7.79297 7.38369C7.72366 7.37847 7.65516 7.40209 7.60172 7.44963C7.54815 7.49641 7.51388 7.56384 7.50632 7.6374C7.49876 7.71096 7.51849 7.78475 7.56129 7.84287C7.75832 8.10585 7.96088 8.36391 8.17124 8.61461C8.28193 8.74634 8.44359 8.75421 8.55152 8.62296C8.86521 8.24152 9.16927 7.85074 9.4701 7.457C9.55048 7.35181 9.53716 7.22647 9.4577 7.11734C9.42352 7.06696 9.37414 7.03078 9.31789 7.01493C9.26164 6.99907 9.202 7.00451 9.14907 7.03034C9.083 7.06604 9.02571 7.11791 8.98188 7.18174C8.7775 7.43882 8.57725 7.6959 8.36644 7.96379L8.36596 7.96281ZM8.36596 10.4294C8.22818 10.2588 8.11521 10.107 7.99212 9.96244C7.86903 9.81793 7.71057 9.81252 7.5962 9.92164C7.48184 10.0308 7.47082 10.1945 7.57692 10.3341C7.76477 10.5798 7.95584 10.8256 8.15379 11.0635C8.28285 11.2188 8.44589 11.2252 8.57128 11.0714C8.87211 10.7022 9.16422 10.3247 9.45633 9.9477C9.49385 9.89917 9.51539 9.83877 9.51762 9.77584C9.51985 9.7129 9.50262 9.65093 9.46864 9.59951C9.43466 9.54809 9.38581 9.51008 9.32962 9.49136C9.27343 9.47264 9.21304 9.47426 9.15779 9.49596C9.09098 9.52972 9.03283 9.58032 8.98832 9.64343C8.78209 9.89854 8.58092 10.1571 8.36552 10.4304L8.36596 10.4294ZM8.36596 12.8945C8.23047 12.7245 8.11243 12.5682 7.98521 12.4202C7.96245 12.3905 7.93444 12.366 7.90277 12.348C7.8711 12.33 7.83641 12.3189 7.80071 12.3154C7.76501 12.3118 7.729 12.3158 7.69477 12.3273C7.66053 12.3387 7.62874 12.3572 7.60125 12.3819C7.57358 12.4065 7.55083 12.4368 7.53435 12.471C7.51787 12.5053 7.50801 12.5427 7.50536 12.5811C7.5027 12.6195 7.50729 12.6581 7.51888 12.6945C7.53046 12.731 7.54879 12.7646 7.57277 12.7933C7.76016 13.0391 7.95169 13.2848 8.14872 13.5232C8.28329 13.6864 8.44774 13.6909 8.57863 13.5291C8.87488 13.1639 9.16377 12.7918 9.45128 12.4187C9.54819 12.2939 9.54635 12.1592 9.44485 12.0353C9.33554 11.9011 9.14998 11.909 9.02597 12.0614C8.80781 12.3302 8.59654 12.6031 8.36552 12.8955L8.36596 12.8945ZM8.36596 15.3592C8.23415 15.1945 8.11565 15.0382 7.98889 14.8902C7.8782 14.7605 7.7179 14.7428 7.60538 14.8411C7.48504 14.9448 7.4676 15.1223 7.57921 15.2663C7.76292 15.5086 7.95122 15.7485 8.14412 15.9825C8.28421 16.1525 8.44911 16.155 8.58644 15.9825C8.87809 15.6212 9.16285 15.253 9.44853 14.8858C9.49337 14.8368 9.5195 14.7716 9.52179 14.7031C9.52409 14.6345 9.50239 14.5675 9.46093 14.5152C9.35299 14.3608 9.1541 14.3648 9.01861 14.5314C8.80137 14.8032 8.59148 15.0765 8.36596 15.3602V15.3592Z" fill="#5856D6"/>
<path d="M9.07007 19.7883C9.38055 19.4634 9.59596 19.1301 9.70987 18.7295C9.74615 18.6017 9.74661 18.4109 9.82561 18.3608C9.93308 18.292 10.1012 18.3239 10.2422 18.3239C13.3519 18.3239 16.4616 18.3239 19.5713 18.3239C19.8262 18.3239 19.8377 18.3421 19.7527 18.6056C19.5231 19.3198 18.9021 19.7853 18.1727 19.7888C16.6038 19.7911 15.0346 19.7911 13.465 19.7888H9.07007V19.7883Z" fill="#5856D6"/>
<path d="M3.03134 7.05523H4.18876V17.9677H3.0341C3.03088 17.9052 3.02538 17.8458 3.02538 17.7868C3.02538 14.2679 3.02538 10.7487 3.02538 7.22924C3.02538 7.16878 3.03318 7.10783 3.03778 7.04688C3.03591 7.04989 3.03375 7.05269 3.03134 7.05523Z" fill="#5856D6"/>
<path d="M3.03864 6.48828C3.03497 6.25086 3.01981 6.01246 3.03084 5.77602C3.03956 5.58677 3.19526 5.44226 3.39275 5.42456C3.5352 5.41203 3.67836 5.41203 3.8208 5.42456C4.05458 5.44472 4.191 5.60594 4.19743 5.85958C4.20248 6.0562 4.19743 6.24988 4.19743 6.48336H3.03404L3.03864 6.48828Z" fill="#5856D6"/>
<path d="M3.12592 18.5732H4.09043L3.6371 19.7938L3.58613 19.8016C3.43777 19.3995 3.28805 18.9994 3.12592 18.5732Z" fill="#5856D6"/>
</svg>
