<svg width="22" height="22" viewBox="0 0 22 22" fill="none" xmlns="http://www.w3.org/2000/svg">
<g clip-path="url(#clip0_206_9693)">
<path d="M10.3715 19.9995C10.0546 19.9534 9.73776 19.9147 9.42089 19.8588C8.06716 19.6265 6.78697 19.0795 5.68351 18.2619C5.63809 18.2288 5.58985 18.1993 5.51873 18.1521C5.51028 18.3094 5.50535 18.4418 5.49514 18.5744C5.47014 18.893 5.24868 19.0982 4.94483 19.0887C4.65154 19.0795 4.4336 18.8455 4.43818 18.5283C4.44522 18.0307 4.45696 17.5331 4.47339 17.0357C4.48501 16.7168 4.66739 16.5105 4.97793 16.4518C5.46005 16.3607 5.94252 16.2713 6.42535 16.1836C6.71089 16.1315 6.97425 16.3106 7.04326 16.6003C7.10593 16.8646 6.93165 17.1472 6.65597 17.2183C6.51196 17.2535 6.36409 17.2768 6.19825 17.3521C6.54823 17.5689 6.88905 17.803 7.25028 17.999C8.48388 18.6732 9.87845 18.9973 11.2831 18.9363C13.0464 18.875 14.7389 18.2278 16.093 17.0971C17.447 15.9663 18.3852 14.4165 18.7592 12.6928C19.068 11.285 18.9892 9.89262 18.5431 8.52138C18.4329 8.18209 18.5399 7.90052 18.8184 7.78437C19.1025 7.66576 19.4381 7.80373 19.5226 8.11698C19.6761 8.69736 19.7997 9.28549 19.9275 9.87221C19.9658 10.0482 19.9775 10.2294 20.0014 10.4082V11.6017C19.9872 11.6453 19.9764 11.6899 19.9694 11.7351C19.8827 12.8727 19.5979 13.9602 19.0758 14.9732C17.7005 17.6403 15.5436 19.2854 12.5875 19.8595C12.2735 19.9203 11.9538 19.9541 11.6369 20.0002L10.3715 19.9995Z" fill="#5856D6"/>
<path d="M5.75429 10.9944C5.77154 8.0752 8.14178 5.71671 11.0356 5.74029C13.9294 5.76387 16.2778 8.14418 16.2517 11.0222C16.2253 13.941 13.8642 16.2914 10.9817 16.2685C8.08791 16.2456 5.73739 13.8738 5.75429 10.9944ZM10.4768 13.3972C10.4768 13.5243 10.4729 13.6288 10.4768 13.7333C10.4895 14.0272 10.7067 14.2472 10.988 14.2553C11.2767 14.2634 11.5077 14.0469 11.5285 13.7446C11.5357 13.6626 11.5357 13.5802 11.5285 13.4982C11.513 13.3613 11.5563 13.287 11.6887 13.2166C12.5238 12.7781 12.7147 11.6726 12.0883 10.9687C11.7992 10.6452 11.431 10.4939 11.0018 10.4759C10.9042 10.4757 10.8098 10.4407 10.7358 10.3771C10.6618 10.3136 10.6129 10.2257 10.5979 10.1292C10.5839 10.0388 10.6015 9.94623 10.6476 9.86716C10.6938 9.78808 10.7657 9.72727 10.8514 9.69492C10.9297 9.67209 11.0111 9.66176 11.0926 9.6643C11.3743 9.66043 11.6559 9.67134 11.9355 9.65938C12.2555 9.646 12.4636 9.41723 12.4548 9.11454C12.4457 8.82452 12.2221 8.61757 11.9112 8.61335C11.7897 8.61335 11.6686 8.61335 11.5306 8.61335C11.5306 8.49051 11.5345 8.38668 11.5306 8.28286C11.5169 7.97911 11.2943 7.75491 11.0085 7.75069C10.7226 7.74647 10.487 7.98122 10.4775 8.29095C10.4747 8.39056 10.4898 8.49227 10.4722 8.58871C10.4603 8.65565 10.4223 8.71513 10.3666 8.75413C9.76031 9.07829 9.44061 9.71182 9.57089 10.3492C9.70679 11.0155 10.2571 11.4832 10.9592 11.5297C11.2391 11.548 11.4169 11.7057 11.4151 11.9376C11.4151 12.1784 11.2267 12.3413 10.9412 12.3438C10.6557 12.3462 10.3779 12.3399 10.0983 12.3455C9.76911 12.3522 9.54448 12.5764 9.55011 12.8823C9.5554 13.179 9.7832 13.3916 10.1018 13.3958C10.2187 13.3972 10.3349 13.3972 10.4768 13.3972Z" fill="#5856D6"/>
<path d="M16.4785 3.83246C16.4785 3.69168 16.4736 3.56427 16.4785 3.43791C16.4922 3.13241 16.7126 2.91806 17.0066 2.91877C17.0758 2.91783 17.1444 2.93068 17.2086 2.95654C17.2727 2.98241 17.3311 3.02079 17.3803 3.06944C17.4294 3.11809 17.4684 3.17604 17.4949 3.23991C17.5214 3.30377 17.535 3.37228 17.5347 3.44143C17.5418 3.95647 17.5418 4.47174 17.5347 4.98724C17.5312 5.27937 17.3457 5.49477 17.0556 5.55601C16.5528 5.66207 16.0493 5.76473 15.5451 5.86398C15.306 5.91114 15.0367 5.71827 14.9818 5.46873C14.9494 5.33343 14.9712 5.19086 15.0424 5.07136C15.1136 4.95185 15.2287 4.86485 15.3631 4.82886C15.5127 4.78979 15.6655 4.76269 15.8169 4.73031L15.8377 4.66414C15.392 4.40088 14.9596 4.11016 14.4973 3.87962C13.1509 3.20808 11.7158 2.95819 10.223 3.10531C9.03831 3.22251 7.89515 3.60449 6.87811 4.22301C5.86106 4.84153 4.99616 5.68074 4.3474 6.67854C3.69864 7.67635 3.28262 8.80722 3.13014 9.98746C2.97765 11.1677 3.0926 12.3671 3.46648 13.497C3.57738 13.8359 3.45169 14.1344 3.16263 14.234C2.86828 14.3357 2.56092 14.1893 2.47536 13.8676C2.3303 13.3213 2.17081 12.7733 2.09264 12.2155C1.85534 10.5261 2.06905 8.88134 2.79364 7.33518C4.12171 4.50013 6.32646 2.73082 9.41284 2.16135C11.9345 1.6957 14.2537 2.25849 16.338 3.76242C16.3662 3.78283 16.3954 3.80219 16.4246 3.82155C16.4423 3.82663 16.4603 3.83028 16.4785 3.83246Z" fill="#5856D6"/>
</g>
<defs>
<clipPath id="clip0_206_9693">
<rect width="18" height="18" fill="white" transform="translate(2 2)"/>
</clipPath>
</defs>
</svg>
