<svg width="16" height="19" viewBox="0 0 16 19" fill="none" xmlns="http://www.w3.org/2000/svg">
<path d="M0.923999 9.79089V2.16213C0.910837 1.85536 1.00724 1.5539 1.19597 1.3117C1.3847 1.06949 1.65345 0.902318 1.95413 0.840102C2.04725 0.828608 2.14143 0.828608 2.23455 0.840102C6.36656 0.840102 10.4967 0.840102 14.6249 0.840102C14.9616 0.835401 15.2867 0.962769 15.5306 1.19491C15.7745 1.42705 15.9178 1.7455 15.9297 2.082V17.4425C15.9395 17.6217 15.9116 17.801 15.848 17.9688C15.7843 18.1367 15.6863 18.2893 15.5602 18.417C15.4341 18.5447 15.2827 18.6447 15.1157 18.7104C14.9488 18.7762 14.7699 18.8063 14.5905 18.7989H2.25174C2.07393 18.8062 1.89655 18.7765 1.73079 18.7118C1.56502 18.647 1.41447 18.5486 1.28864 18.4228C1.1628 18.297 1.06442 18.1464 0.999693 17.9807C0.934964 17.8149 0.905275 17.6375 0.912542 17.4597L0.923999 9.79089ZM4.08311 15.8172H3.44213C3.05869 15.8172 2.86983 15.9603 2.86983 16.2464C2.86983 16.5326 3.06442 16.6642 3.44213 16.6642H13.3944C13.8522 16.6642 13.9667 16.5383 13.9667 16.0919V9.5219C13.9724 9.44761 13.9724 9.37299 13.9667 9.2987C13.9548 9.19851 13.9066 9.10616 13.8312 9.03915C13.7558 8.97214 13.6584 8.93513 13.5575 8.93513C13.4566 8.93513 13.3593 8.97214 13.2839 9.03915C13.2084 9.10616 13.1602 9.19851 13.1483 9.2987C13.1398 9.39198 13.1398 9.48586 13.1483 9.57914V15.8172H12.0724V15.5711C12.0724 14.4666 12.0724 13.362 12.0724 12.2575C12.0724 11.9485 11.895 11.7539 11.6432 11.7596C11.3914 11.7653 11.2368 11.9599 11.2254 12.2575V15.8172H10.2067V15.5883C10.2067 14.8271 10.2067 14.0602 10.2067 13.2991C10.2141 13.2372 10.2073 13.1744 10.1869 13.1155C10.1665 13.0566 10.133 13.0031 10.0889 12.959C10.0448 12.915 9.99132 12.8815 9.93242 12.8611C9.87352 12.8407 9.81076 12.8339 9.74886 12.8412C9.69028 12.8476 9.63359 12.8656 9.5821 12.8942C9.53061 12.9229 9.4854 12.9616 9.44912 13.008C9.41284 13.0544 9.38623 13.1076 9.37088 13.1645C9.35552 13.2214 9.3517 13.2808 9.3597 13.3392V15.8172H8.35817V13.963C8.35817 13.6654 8.19222 13.4822 7.94041 13.4765C7.68859 13.4708 7.51118 13.6654 7.51118 13.9687C7.51118 14.5124 7.51118 15.056 7.51118 15.594V15.8172H6.647V15.5883C6.647 15.2277 6.647 14.8672 6.647 14.5066C6.63889 14.407 6.59534 14.3136 6.52426 14.2434C6.45317 14.1731 6.35925 14.1307 6.25955 14.1238C6.15985 14.1169 6.06096 14.1459 5.98084 14.2057C5.90073 14.2654 5.84469 14.3519 5.82289 14.4494C5.81417 14.5503 5.81417 14.6518 5.82289 14.7527C5.82289 15.1018 5.82289 15.4567 5.82289 15.8115H4.96444V15.5654C4.97316 15.4798 4.97316 15.3935 4.96444 15.3078C4.94153 15.2097 4.88395 15.1232 4.80229 15.0642C4.72063 15.0052 4.6204 14.9777 4.52005 14.9868C4.41971 14.9958 4.326 15.0408 4.25622 15.1135C4.18645 15.1862 4.14529 15.2816 4.14032 15.3823C4.07737 15.5024 4.08311 15.6455 4.08311 15.8172ZM8.85038 5.5158C8.85147 4.92505 8.67769 4.34718 8.35098 3.85498C8.02427 3.36279 7.55922 2.97828 7.0144 2.74989C6.46958 2.5215 5.86935 2.45943 5.28933 2.57152C4.7093 2.6836 4.1754 2.96483 3.7549 3.37977C3.3344 3.79471 3.04612 4.3248 2.92632 4.90328C2.80651 5.48176 2.86057 6.08276 3.08169 6.63057C3.3028 7.17839 3.68106 7.64853 4.16886 7.98177C4.65666 8.315 5.23217 8.49643 5.82289 8.50321C6.21856 8.50852 6.61134 8.43516 6.97842 8.28741C7.34551 8.13966 7.67959 7.92044 7.96126 7.64251C8.24292 7.36457 8.46654 7.03345 8.61917 6.66837C8.7718 6.30328 8.85041 5.91151 8.85038 5.5158ZM10.5215 9.99119C10.5134 10.0174 10.5018 10.0424 10.4871 10.0656L8.47837 11.937C8.45035 11.9525 8.41882 11.9607 8.38678 11.9607C8.35474 11.9607 8.32325 11.9525 8.29523 11.937C8.0892 11.8111 7.90606 11.6566 7.72293 11.525C7.5956 11.4304 7.44242 11.3769 7.28389 11.3718C7.12535 11.3667 6.96903 11.4102 6.83587 11.4963C6.14339 11.937 5.46234 12.4006 4.78703 12.8641C4.71084 12.9083 4.6522 12.9774 4.62093 13.0597C4.58966 13.142 4.58769 13.2326 4.61534 13.3163C4.63461 13.3858 4.67113 13.4494 4.7215 13.5011C4.77186 13.5528 4.83445 13.591 4.90348 13.6122C4.97252 13.6333 5.04574 13.6366 5.11642 13.6219C5.1871 13.6072 5.25295 13.5749 5.30784 13.528C5.88014 13.1331 6.48675 12.7439 7.0705 12.3433C7.20213 12.2518 7.28799 12.2289 7.4139 12.3433C7.5546 12.4584 7.70171 12.5654 7.85455 12.6638C7.93794 12.7375 8.03505 12.7941 8.14031 12.8302C8.24558 12.8664 8.35695 12.8814 8.46803 12.8745C8.57911 12.8676 8.68774 12.8389 8.78771 12.79C8.88768 12.741 8.97705 12.6729 9.05067 12.5894L11.048 10.7294L11.2254 10.5692C11.2254 10.6608 11.2254 10.7123 11.2254 10.7638C11.223 10.8208 11.2324 10.8777 11.2531 10.9309C11.2738 10.9841 11.3054 11.0324 11.3457 11.0727C11.3861 11.1131 11.4344 11.1446 11.4876 11.1653C11.5407 11.186 11.5976 11.1955 11.6546 11.193C11.7104 11.1939 11.7659 11.1833 11.8174 11.1618C11.8689 11.1403 11.9155 11.1084 11.9541 11.0681C11.9928 11.0279 12.0227 10.9801 12.0421 10.9277C12.0615 10.8753 12.0699 10.8195 12.0667 10.7638C12.0667 10.3804 12.0667 10.0026 12.0667 9.6192C12.0667 9.3445 11.9293 9.16707 11.689 9.15562C11.1911 9.15562 10.6989 9.15562 10.201 9.15562C10.1472 9.15987 10.0949 9.17494 10.0471 9.1999C9.9993 9.22486 9.95705 9.2592 9.92285 9.30088C9.88865 9.34256 9.86321 9.39073 9.84806 9.44247C9.83292 9.49422 9.82839 9.54849 9.83472 9.60203C9.83693 9.65541 9.84964 9.70781 9.87213 9.75627C9.89462 9.80473 9.92644 9.84828 9.96578 9.88443C10.0051 9.92058 10.0512 9.94862 10.1014 9.96694C10.1516 9.98526 10.2048 9.9935 10.2582 9.99119H10.5215ZM11.855 7.63903H12.8164C13.0911 7.63903 13.3887 7.63903 13.6405 7.63903C13.7382 7.63031 13.8287 7.58452 13.8937 7.51108C13.9586 7.43764 13.9929 7.34211 13.9896 7.24414C13.9934 7.14214 13.9593 7.04236 13.8937 6.96412C13.8281 6.88588 13.7359 6.83475 13.6348 6.82065H13.4574H10.2639C10.2057 6.80587 10.1447 6.80587 10.0865 6.82065C9.96521 6.8766 9.8592 6.96102 9.7775 7.06673C9.6287 7.35288 9.84618 7.63903 10.2067 7.63903H11.855ZM11.855 5.08085H10.1895C10.1298 5.07455 10.0695 5.08051 10.0121 5.09838C9.9548 5.11626 9.90172 5.14566 9.85616 5.18478C9.81061 5.22391 9.77354 5.27193 9.74722 5.3259C9.72089 5.37987 9.70589 5.43865 9.7031 5.49863C9.70447 5.55929 9.71817 5.61904 9.74341 5.67421C9.76865 5.72939 9.80489 5.77883 9.84988 5.81954C9.89487 5.86025 9.94769 5.89135 10.0051 5.91095C10.0625 5.93056 10.1233 5.93827 10.1838 5.93359H13.4975C13.5578 5.93998 13.6188 5.93366 13.6766 5.91504C13.7344 5.89643 13.7876 5.86593 13.8329 5.8255C13.8782 5.78507 13.9145 5.7356 13.9395 5.68029C13.9645 5.62498 13.9777 5.56506 13.9782 5.50436C13.9782 5.24683 13.795 5.08657 13.5031 5.08085H11.855ZM12.6962 4.21096H13.5375C13.6498 4.21096 13.7576 4.16634 13.837 4.08692C13.9164 4.0075 13.961 3.89978 13.961 3.78746C13.961 3.67514 13.9164 3.56741 13.837 3.48799C13.7576 3.40856 13.6498 3.36395 13.5375 3.36395C12.9652 3.36395 12.3929 3.36395 11.8206 3.36395C11.7083 3.36395 11.6005 3.40856 11.5211 3.48799C11.4417 3.56741 11.3971 3.67514 11.3971 3.78746C11.3971 3.89978 11.4417 4.0075 11.5211 4.08692C11.6005 4.16634 11.7083 4.21096 11.8206 4.21096H12.6962Z" fill="#007AFF"/>
<path d="M5.43397 3.44427V3.7247C5.43397 4.297 5.43397 4.8693 5.43397 5.4416C5.43397 5.81359 5.58848 5.96812 5.96048 5.96812H7.92346C7.92346 6.74645 6.95056 7.61635 5.96621 7.68502C5.42677 7.70567 4.89892 7.52495 4.48533 7.17801C4.07175 6.83106 3.80201 6.34269 3.72853 5.80788C3.65751 5.27068 3.79454 4.72664 4.11161 4.28722C4.42868 3.84779 4.90177 3.54622 5.43397 3.44427Z" fill="#007AFF"/>
<path d="M6.29787 3.43286C6.70506 3.5148 7.07847 3.71661 7.37013 4.01234C7.66178 4.30807 7.85836 4.68425 7.93464 5.09255H6.29787V3.43286Z" fill="#007AFF"/>
</svg>
