<svg width="20" height="20" viewBox="0 0 20 20" fill="none" xmlns="http://www.w3.org/2000/svg">
<g clip-path="url(#clip0_206_9769)">
<path d="M1 19C1 18.9234 1.01242 18.8485 1.01242 18.7718V10.3945H9.3858C9.3858 10.4485 9.39821 10.5042 9.39821 10.5686V18.8519C9.39821 18.9042 9.39822 18.9564 9.3858 19.0087L1 19ZM3.02545 13.89H7.38698V12.7492H3.02545V13.89Z" fill="#007AFF"/>
<path d="M10.6089 19C10.6089 18.9356 10.5964 18.8711 10.5964 18.8084V10.3928H18.9876V10.607C18.9876 13.3275 18.9876 16.0473 18.9876 18.7666C18.9876 18.8433 18.9965 18.9182 19 18.9948L10.6089 19ZM16.9746 12.7492H12.613V13.89H16.9746V12.7492Z" fill="#007AFF"/>
<path d="M5.81065 9.20319V1H14.5781V9.20319H5.81065ZM12.574 4.50073V3.35123H7.82189V4.51118L12.574 4.50073Z" fill="#007AFF"/>
</g>
<defs>
<clipPath id="clip0_206_9769">
<rect width="18" height="18" fill="white" transform="translate(1 1)"/>
</clipPath>
</defs>
</svg>
